<svg width="24" height="24" viewBox="0 0 24 24" fill="none" xmlns="http://www.w3.org/2000/svg">
<path fill-rule="evenodd" clip-rule="evenodd" d="M3.25 12.501L20.7498 12.501L20.7498 11.001L3.25 11.001L3.25 12.501Z" fill="white"/>
<path fill-rule="evenodd" clip-rule="evenodd" d="M4 11.0001C7.52755 11.0001 10.4101 14.1023 10.4101 17.4102L10.4101 18.1602L8.91005 18.1602L8.91005 17.4102C8.91005 14.8986 6.66739 12.5001 4 12.5001L3.25 12.5001L3.25 11.0001L4 11.0001Z" fill="white"/>
<path fill-rule="evenodd" clip-rule="evenodd" d="M4 12.501C7.52755 12.501 10.4101 9.39878 10.4101 6.09088L10.4101 5.34088L8.91005 5.34088L8.91005 6.09088C8.91005 8.60248 6.66739 11.001 4 11.001L3.25 11.001L3.25 12.501L4 12.501Z" fill="white"/>
</svg>
