<svg width="24" height="24" viewBox="0 0 24 24" fill="none" xmlns="http://www.w3.org/2000/svg">
<path d="M18.75 4C19.1768 4 19.5994 4.08406 19.9937 4.24739C20.388 4.41072 20.7463 4.65011 21.0481 4.9519C21.3499 5.25369 21.5893 5.61197 21.7526 6.00628C21.9159 6.40059 22 6.8232 22 7.25V16.755C22 17.1818 21.9159 17.6044 21.7526 17.9987C21.5893 18.393 21.3499 18.7513 21.0481 19.0531C20.7463 19.3549 20.388 19.5943 19.9937 19.7576C19.5994 19.9209 19.1768 20.005 18.75 20.005H5.25C4.8232 20.005 4.40059 19.9209 4.00628 19.7576C3.61197 19.5943 3.25369 19.3549 2.9519 19.0531C2.65011 18.7513 2.41072 18.393 2.24739 17.9987C2.08406 17.6044 2 17.1818 2 16.755V7.25C1.99995 6.41986 2.31755 5.62117 2.88767 5.01777C3.45779 4.41437 4.23719 4.052 5.066 4.005L5.25 4H18.75ZM18.75 5.5H5.25L5.106 5.506C4.6683 5.54214 4.26019 5.74154 3.96268 6.06461C3.66517 6.38768 3.50002 6.81081 3.5 7.25V16.755C3.5 17.721 4.284 18.505 5.25 18.505H18.75C19.2141 18.505 19.6592 18.3206 19.9874 17.9924C20.3156 17.6642 20.5 17.2191 20.5 16.755V7.25C20.5 6.78587 20.3156 6.34075 19.9874 6.01256C19.6592 5.68437 19.2141 5.5 18.75 5.5ZM5.5 12C5.5 8.854 8.213 7.225 10.622 8.599C10.7859 8.70195 10.9036 8.86427 10.9506 9.05201C10.9976 9.23975 10.9702 9.43839 10.8741 9.60639C10.778 9.77439 10.6207 9.89875 10.4351 9.95347C10.2494 10.0082 10.0498 9.98903 9.878 9.9C8.481 9.104 7 9.994 7 12C7 14.005 8.484 14.896 9.88 14.103C10.0524 14.0118 10.2536 13.9914 10.4408 14.0461C10.6281 14.1007 10.7866 14.2262 10.8829 14.3958C10.9792 14.5655 11.0056 14.7659 10.9565 14.9547C10.9074 15.1435 10.7867 15.3057 10.62 15.407C8.216 16.775 5.5 15.143 5.5 12ZM13 12C13 8.854 15.713 7.225 18.122 8.599C18.2897 8.70016 18.4112 8.8629 18.4604 9.05243C18.5097 9.24197 18.4829 9.44326 18.3858 9.6133C18.2886 9.78333 18.1288 9.90862 17.9405 9.96238C17.7522 10.0161 17.5503 9.99411 17.378 9.901C15.981 9.104 14.5 9.994 14.5 12C14.5 14.005 15.984 14.896 17.38 14.103C17.5524 14.0118 17.7536 13.9914 17.9408 14.0461C18.1281 14.1007 18.2866 14.2262 18.3829 14.3958C18.4792 14.5655 18.5056 14.7659 18.4565 14.9547C18.4074 15.1435 18.2867 15.3057 18.12 15.407C15.716 16.775 13 15.143 13 12Z" fill="white"/>
</svg>
