<svg width="48" height="15" viewBox="0 0 48 15" fill="none" xmlns="http://www.w3.org/2000/svg">
<path d="M3.56 6.84C3.56 7.10667 3.73333 7.32667 4.08 7.5C4.44 7.66 4.87333 7.80667 5.38 7.94C5.88667 8.06 6.39333 8.22 6.9 8.42C7.40667 8.60667 7.83333 8.92667 8.18 9.38C8.54 9.83333 8.72 10.4 8.72 11.08C8.72 12.1067 8.33333 12.9 7.56 13.46C6.8 14.0067 5.84667 14.28 4.7 14.28C2.64667 14.28 1.24667 13.4867 0.5 11.9L2.74 10.64C3.03333 11.5067 3.68667 11.94 4.7 11.94C5.62 11.94 6.08 11.6533 6.08 11.08C6.08 10.8133 5.9 10.6 5.54 10.44C5.19333 10.2667 4.76667 10.1133 4.26 9.98C3.75333 9.84667 3.24667 9.68 2.74 9.48C2.23333 9.28 1.8 8.96667 1.44 8.54C1.09333 8.1 0.92 7.55333 0.92 6.9C0.92 5.91333 1.28 5.14 2 4.58C2.73333 4.00667 3.64 3.72 4.72 3.72C5.53333 3.72 6.27333 3.90667 6.94 4.28C7.60667 4.64 8.13333 5.16 8.52 5.84L6.32 7.04C6 6.36 5.46667 6.02 4.72 6.02C4.38667 6.02 4.10667 6.09333 3.88 6.24C3.66667 6.38667 3.56 6.58667 3.56 6.84ZM15.9392 3.72C17.0326 3.72 17.9326 4.08667 18.6392 4.82C19.3592 5.55333 19.7192 6.56667 19.7192 7.86V14H17.1392V8.18C17.1392 7.51333 16.9592 7.00667 16.5992 6.66C16.2392 6.3 15.7592 6.12 15.1592 6.12C14.4926 6.12 13.9592 6.32667 13.5592 6.74C13.1592 7.15333 12.9592 7.77333 12.9592 8.6V14H10.3792V-9.53674e-07H12.9592V5.12C13.5859 4.18667 14.5792 3.72 15.9392 3.72ZM30.4422 12.76C29.4155 13.7733 28.1622 14.28 26.6822 14.28C25.2022 14.28 23.9489 13.7733 22.9222 12.76C21.9089 11.7333 21.4022 10.48 21.4022 9C21.4022 7.52 21.9089 6.27333 22.9222 5.26C23.9489 4.23333 25.2022 3.72 26.6822 3.72C28.1622 3.72 29.4155 4.23333 30.4422 5.26C31.4689 6.27333 31.9822 7.52 31.9822 9C31.9822 10.48 31.4689 11.7333 30.4422 12.76ZM24.7422 10.98C25.2622 11.5 25.9089 11.76 26.6822 11.76C27.4555 11.76 28.1022 11.5 28.6222 10.98C29.1422 10.46 29.4022 9.8 29.4022 9C29.4022 8.2 29.1422 7.54 28.6222 7.02C28.1022 6.5 27.4555 6.24 26.6822 6.24C25.9089 6.24 25.2622 6.5 24.7422 7.02C24.2355 7.54 23.9822 8.2 23.9822 9C23.9822 9.8 24.2355 10.46 24.7422 10.98ZM44.6666 4H47.4066L44.2266 14H41.7666L39.9266 7.94L38.0866 14H35.6266L32.4466 4H35.1866L36.8866 10.14L38.7066 4H41.1466L42.9666 10.16L44.6666 4Z" fill="#6D6D6D"/>
</svg>
