<svg width="39" height="16" viewBox="0 0 39 16" fill="none" xmlns="http://www.w3.org/2000/svg">
<path d="M5.74 4.72C6.83333 4.72 7.73333 5.08667 8.44 5.82C9.16 6.55333 9.52 7.56667 9.52 8.86V15H6.94V9.18C6.94 8.51333 6.76 8.00667 6.4 7.66C6.04 7.3 5.56 7.12 4.96 7.12C4.29333 7.12 3.76 7.32667 3.36 7.74C2.96 8.15333 2.76 8.77333 2.76 9.6V15H0.18V0.999999H2.76V6.12C3.38667 5.18667 4.38 4.72 5.74 4.72ZM13.003 3.8C12.5763 3.8 12.203 3.64667 11.883 3.34C11.5763 3.02 11.423 2.64667 11.423 2.22C11.423 1.79333 11.5763 1.42 11.883 1.1C12.203 0.779999 12.5763 0.619999 13.003 0.619999C13.443 0.619999 13.8163 0.779999 14.123 1.1C14.443 1.42 14.603 1.79333 14.603 2.22C14.603 2.64667 14.443 3.02 14.123 3.34C13.8163 3.64667 13.443 3.8 13.003 3.8ZM11.723 15V5H14.303V15H11.723ZM24.2444 0.999999H26.8244V15H24.2444V13.82C23.4844 14.7933 22.4044 15.28 21.0044 15.28C19.6577 15.28 18.5044 14.7733 17.5444 13.76C16.5977 12.7333 16.1244 11.48 16.1244 10C16.1244 8.52 16.5977 7.27333 17.5444 6.26C18.5044 5.23333 19.6577 4.72 21.0044 4.72C22.4044 4.72 23.4844 5.20667 24.2444 6.18V0.999999ZM19.4844 12.04C20.0177 12.56 20.6844 12.82 21.4844 12.82C22.2844 12.82 22.9444 12.56 23.4644 12.04C23.9844 11.5067 24.2444 10.8267 24.2444 10C24.2444 9.17333 23.9844 8.5 23.4644 7.98C22.9444 7.44667 22.2844 7.18 21.4844 7.18C20.6844 7.18 20.0177 7.44667 19.4844 7.98C18.9644 8.5 18.7044 9.17333 18.7044 10C18.7044 10.8267 18.9644 11.5067 19.4844 12.04ZM31.3639 11.06C31.7106 12.3133 32.6506 12.94 34.1839 12.94C35.1706 12.94 35.9172 12.6067 36.4239 11.94L38.5039 13.14C37.5172 14.5667 36.0639 15.28 34.1439 15.28C32.4906 15.28 31.1639 14.78 30.1639 13.78C29.1639 12.78 28.6639 11.52 28.6639 10C28.6639 8.49333 29.1572 7.24 30.1439 6.24C31.1306 5.22667 32.3972 4.72 33.9439 4.72C35.4106 4.72 36.6172 5.22667 37.5639 6.24C38.5239 7.25333 39.0039 8.50667 39.0039 10C39.0039 10.3333 38.9706 10.6867 38.9039 11.06H31.3639ZM31.3239 9.06H36.4239C36.2772 8.38 35.9706 7.87333 35.5039 7.54C35.0506 7.20667 34.5306 7.04 33.9439 7.04C33.2506 7.04 32.6772 7.22 32.2239 7.58C31.7706 7.92667 31.4706 8.42 31.3239 9.06Z" fill="#6D6D6D"/>
</svg>
