<svg width="75" height="75" viewBox="0 0 75 75" fill="none" xmlns="http://www.w3.org/2000/svg">
<rect width="75" height="75" rx="37.5" fill="black"/>
<path d="M50.955 28.9868L60.405 33.5768C58.845 39.5168 55.995 43.3568 51.855 45.0968C47.715 46.8368 43.065 46.3868 37.905 43.7468C35.505 42.6068 33.585 41.8268 32.145 41.4068C30.765 40.9268 29.505 40.7468 28.365 40.8668C27.285 40.9868 26.445 41.4668 25.845 42.3068C25.245 43.0868 24.645 44.2868 24.045 45.9068L14.595 41.4068C16.155 35.5268 19.005 31.7168 23.145 29.9768C27.285 28.1768 31.935 28.5668 37.095 31.1468C40.275 32.6468 42.675 33.5768 44.295 33.9368C45.915 34.2968 47.235 34.1168 48.255 33.3968C49.275 32.6168 50.175 31.1468 50.955 28.9868Z" fill="white"/>
</svg>
